<svg width="24" height="22" viewBox="0 0 24 22" xmlns="http://www.w3.org/2000/svg"><title>logo</title><g fill="none" fill-rule="evenodd"><path d="M0-1h24v24H0z"/><path d="M11.908 19.884a7.141 7.141 0 1 1 0-14.282 7.141 7.141 0 0 1 0 14.282" fill="#FFF"/><path d="M23.618 10.274c.01-.508-.338-.94-.813-1.054a1.976 1.976 0 0 0-1.922-1.522h-.32a10.012 10.012 0 0 1 1.047 7.56 1.971 1.971 0 0 0 1.688-1.947l-.021-.177c.314-.18.53-.513.537-.9l-.196-1.96zM3.25 7.698h-.32c-.934 0-1.715.65-1.921 1.522a1.062 1.062 0 0 0-.813 1.054L0 12.234c.008.387.223.721.537.9l-.02.177a1.97 1.97 0 0 0 1.686 1.948 9.997 9.997 0 0 1-.32-2.517c0-1.838.5-3.561 1.367-5.044M3.074 6.55a10.784 10.784 0 0 1 8.833-4.6c3.648 0 6.878 1.82 8.832 4.6h.144c.647 0 1.252.2 1.755.541-2.036-3.85-6.082-6.48-10.731-6.48-4.65 0-8.696 2.63-10.732 6.481a3.112 3.112 0 0 1 1.756-.541h.143zm8.833 9.729a3.536 3.536 0 1 1 0-7.071 3.536 3.536 0 0 1 0 7.07z" fill="#00B6FF"/><path d="M13.87 12.742a1.964 1.964 0 1 1-3.926.002 1.964 1.964 0 0 1 3.927-.002" fill="#272B33"/><path d="M10.733 10.533a.96.96 0 1 0 0 1.92.96.96 0 0 0 0-1.92z" fill="#FFF"/><path d="M11.908 18.753a6.01 6.01 0 1 1 0-12.02 6.01 6.01 0 0 1 0 12.02m-.001-14.887a8.877 8.877 0 1 0 .001 17.754 8.877 8.877 0 0 0-.001-17.754" fill="#00B6FF"/></g></svg>